<mxfile host="65bd71144e">
    <diagram id="Iz26gCM1m8_hL7JU3MXF" name="Page-1">
        <mxGraphModel dx="1284" dy="588" grid="1" gridSize="10" guides="1" tooltips="1" connect="1" arrows="1" fold="1" page="0" pageScale="1" pageWidth="827" pageHeight="1169" math="0" shadow="0">
            <root>
                <mxCell id="0"/>
                <mxCell id="1" parent="0"/>
                <mxCell id="28" value="&lt;p style=&quot;&quot;&gt;&lt;b&gt;Package: aetos_sim (python pkg)&lt;/b&gt;&lt;/p&gt;" style="whiteSpace=wrap;html=1;align=center;horizontal=1;verticalAlign=top;" parent="1" vertex="1">
                    <mxGeometry x="450" y="720" width="270" height="240" as="geometry"/>
                </mxCell>
                <mxCell id="11" value="&lt;p style=&quot;&quot;&gt;&lt;b&gt;Package: aetos_com&lt;/b&gt;&lt;/p&gt;" style="whiteSpace=wrap;html=1;align=center;horizontal=1;verticalAlign=top;" parent="1" vertex="1">
                    <mxGeometry x="70" y="720" width="270" height="240" as="geometry"/>
                </mxCell>
                <mxCell id="10" value="&lt;p style=&quot;&quot;&gt;&lt;b&gt;Package: aetos_kinematic&lt;/b&gt;&lt;/p&gt;" style="whiteSpace=wrap;html=1;align=center;horizontal=1;verticalAlign=top;" parent="1" vertex="1">
                    <mxGeometry x="270" y="360" width="270" height="240" as="geometry"/>
                </mxCell>
                <mxCell id="8" value="&lt;p style=&quot;&quot;&gt;&lt;b&gt;Package: aetos_joy&lt;/b&gt;&lt;/p&gt;" style="whiteSpace=wrap;html=1;align=center;horizontal=1;verticalAlign=top;" parent="1" vertex="1">
                    <mxGeometry x="82.5" width="275" height="240" as="geometry"/>
                </mxCell>
                <mxCell id="2" value="&lt;b&gt;File: joy_demux&lt;br&gt;Node: JoyDemux&lt;br&gt;&lt;/b&gt;&lt;br&gt;This node takes in input from the controller and outputs mappings for x, y and z velocities" style="rounded=1;whiteSpace=wrap;html=1;" parent="1" vertex="1">
                    <mxGeometry x="120" y="60" width="200" height="120" as="geometry"/>
                </mxCell>
                <mxCell id="3" value="" style="edgeStyle=none;orthogonalLoop=1;jettySize=auto;html=1;entryX=0;entryY=0.5;entryDx=0;entryDy=0;" parent="1" target="2" edge="1">
                    <mxGeometry width="100" relative="1" as="geometry">
                        <mxPoint x="-80" y="120" as="sourcePoint"/>
                        <mxPoint x="80" y="160" as="targetPoint"/>
                        <Array as="points"/>
                    </mxGeometry>
                </mxCell>
                <mxCell id="4" value="Controller input" style="edgeLabel;html=1;align=center;verticalAlign=middle;resizable=0;points=[];" parent="3" vertex="1" connectable="0">
                    <mxGeometry x="-0.11" y="-3" relative="1" as="geometry">
                        <mxPoint x="1" y="-13" as="offset"/>
                    </mxGeometry>
                </mxCell>
                <mxCell id="31" style="edgeStyle=none;html=1;exitX=0.5;exitY=1;exitDx=0;exitDy=0;entryX=1;entryY=0.5;entryDx=0;entryDy=0;" parent="1" source="5" target="12" edge="1">
                    <mxGeometry relative="1" as="geometry">
                        <Array as="points">
                            <mxPoint x="400" y="840"/>
                        </Array>
                    </mxGeometry>
                </mxCell>
                <mxCell id="32" style="edgeStyle=none;html=1;exitX=0.5;exitY=1;exitDx=0;exitDy=0;entryX=0;entryY=0.5;entryDx=0;entryDy=0;" parent="1" source="5" target="29" edge="1">
                    <mxGeometry relative="1" as="geometry">
                        <Array as="points">
                            <mxPoint x="400" y="840"/>
                        </Array>
                    </mxGeometry>
                </mxCell>
                <mxCell id="34" value="name: MotorVelocity.msg&lt;br&gt;namespace: aetos/control/velocity" style="edgeLabel;html=1;align=center;verticalAlign=middle;resizable=0;points=[];" parent="32" vertex="1" connectable="0">
                    <mxGeometry x="-0.4161" y="-1" relative="1" as="geometry">
                        <mxPoint as="offset"/>
                    </mxGeometry>
                </mxCell>
                <mxCell id="5" value="&lt;b&gt;File: velocity_conversion&lt;br&gt;Node: VelocityConversion&lt;br&gt;&lt;/b&gt;&lt;br&gt;This node takes in input from the velocity msg and computes necessary kinematics to convert desired velocities to direct motor commands" style="rounded=1;whiteSpace=wrap;html=1;" parent="1" vertex="1">
                    <mxGeometry x="300" y="410" width="210" height="140" as="geometry"/>
                </mxCell>
                <mxCell id="6" value="" style="edgeStyle=none;orthogonalLoop=1;jettySize=auto;html=1;exitX=0.5;exitY=1;exitDx=0;exitDy=0;entryX=0;entryY=0.5;entryDx=0;entryDy=0;" parent="1" source="2" target="5" edge="1">
                    <mxGeometry width="100" relative="1" as="geometry">
                        <mxPoint x="350" y="140" as="sourcePoint"/>
                        <mxPoint x="220" y="630" as="targetPoint"/>
                        <Array as="points">
                            <mxPoint x="220" y="310"/>
                            <mxPoint x="220" y="480"/>
                        </Array>
                    </mxGeometry>
                </mxCell>
                <mxCell id="9" value="name: Velocity.msg&lt;br&gt;namespace: aetos/joy/velocity" style="edgeLabel;html=1;align=center;verticalAlign=middle;resizable=0;points=[];" parent="6" vertex="1" connectable="0">
                    <mxGeometry x="0.2417" y="2" relative="1" as="geometry">
                        <mxPoint x="-2" y="-106" as="offset"/>
                    </mxGeometry>
                </mxCell>
                <mxCell id="35" style="edgeStyle=none;html=1;exitX=0.5;exitY=1;exitDx=0;exitDy=0;entryX=0.5;entryY=0;entryDx=0;entryDy=0;" parent="1" source="12" target="36" edge="1">
                    <mxGeometry relative="1" as="geometry">
                        <mxPoint x="205" y="1070" as="targetPoint"/>
                    </mxGeometry>
                </mxCell>
                <mxCell id="12" value="&lt;b&gt;File: serial_com&lt;br&gt;Node: SerialCom&lt;br&gt;&lt;/b&gt;&lt;br&gt;This node takes in motor inputs and relays it to ESP32 microcontrollers through serial port" style="rounded=1;whiteSpace=wrap;html=1;" parent="1" vertex="1">
                    <mxGeometry x="100" y="770" width="210" height="140" as="geometry"/>
                </mxCell>
                <mxCell id="15" value="&lt;p style=&quot;&quot;&gt;&lt;b&gt;Package: aetos_vision&lt;/b&gt;&lt;/p&gt;" style="whiteSpace=wrap;html=1;align=center;horizontal=1;verticalAlign=top;" parent="1" vertex="1">
                    <mxGeometry x="440" width="275" height="240" as="geometry"/>
                </mxCell>
                <mxCell id="19" style="edgeStyle=none;html=1;entryX=1;entryY=0.5;entryDx=0;entryDy=0;" parent="1" source="16" target="5" edge="1">
                    <mxGeometry relative="1" as="geometry">
                        <Array as="points">
                            <mxPoint x="570" y="480"/>
                        </Array>
                    </mxGeometry>
                </mxCell>
                <mxCell id="20" value="name: Velocity.msg&lt;br&gt;namespace: aetos/joy/velocity" style="edgeLabel;html=1;align=center;verticalAlign=middle;resizable=0;points=[];" parent="19" vertex="1" connectable="0">
                    <mxGeometry x="-0.2612" y="1" relative="1" as="geometry">
                        <mxPoint as="offset"/>
                    </mxGeometry>
                </mxCell>
                <mxCell id="16" value="&lt;b&gt;File: vision_control&lt;br&gt;Node: VisionControl&lt;br&gt;&lt;/b&gt;&lt;br&gt;This node takes in input from the camera feed and outputs desired x, y and z velocities" style="rounded=1;whiteSpace=wrap;html=1;" parent="1" vertex="1">
                    <mxGeometry x="477.5" y="60" width="200" height="120" as="geometry"/>
                </mxCell>
                <mxCell id="21" value="" style="edgeStyle=none;orthogonalLoop=1;jettySize=auto;html=1;entryX=1;entryY=0.5;entryDx=0;entryDy=0;" parent="1" target="16" edge="1">
                    <mxGeometry width="100" relative="1" as="geometry">
                        <mxPoint x="870" y="120" as="sourcePoint"/>
                        <mxPoint x="880" y="120" as="targetPoint"/>
                        <Array as="points"/>
                    </mxGeometry>
                </mxCell>
                <mxCell id="22" value="Camera feed" style="edgeLabel;html=1;align=center;verticalAlign=middle;resizable=0;points=[];" parent="21" vertex="1" connectable="0">
                    <mxGeometry x="-0.2489" y="2" relative="1" as="geometry">
                        <mxPoint x="-1" y="-12" as="offset"/>
                    </mxGeometry>
                </mxCell>
                <mxCell id="29" value="&lt;b&gt;File: sim&lt;br&gt;Node: AetosSim&lt;br&gt;&lt;/b&gt;&lt;br&gt;This node takes in input from the velocity msg in order to form a simulation for testing and visualization" style="rounded=1;whiteSpace=wrap;html=1;" parent="1" vertex="1">
                    <mxGeometry x="480" y="770" width="210" height="140" as="geometry"/>
                </mxCell>
                <mxCell id="36" value="&lt;b&gt;ESP32&lt;/b&gt;" style="whiteSpace=wrap;html=1;" parent="1" vertex="1">
                    <mxGeometry x="135" y="1090" width="140" height="60" as="geometry"/>
                </mxCell>
                <mxCell id="37" value="" style="endArrow=classic;html=1;exitX=0.5;exitY=0;exitDx=0;exitDy=0;entryX=0;entryY=0.75;entryDx=0;entryDy=0;" edge="1" parent="1" source="11">
                    <mxGeometry width="50" height="50" relative="1" as="geometry">
                        <mxPoint x="206" y="770" as="sourcePoint"/>
                        <mxPoint x="301" y="515" as="targetPoint"/>
                        <Array as="points">
                            <mxPoint x="206" y="515"/>
                        </Array>
                    </mxGeometry>
                </mxCell>
                <mxCell id="40" value="name:EncoderValues.msg&lt;br&gt;namespace: aetos/control/encoder" style="edgeLabel;html=1;align=center;verticalAlign=middle;resizable=0;points=[];" vertex="1" connectable="0" parent="37">
                    <mxGeometry x="-0.3799" y="-2" relative="1" as="geometry">
                        <mxPoint as="offset"/>
                    </mxGeometry>
                </mxCell>
            </root>
        </mxGraphModel>
    </diagram>
</mxfile>